<svg version="1.1" id="Layer_1" xmlns="http://www.w3.org/2000/svg" xmlns:xlink="http://www.w3.org/1999/xlink" x="0px" y="0px"
	 width="100%" viewBox="0 0 120 120" enable-background="new 0 0 120 120" xml:space="preserve">
<path fill="#FEFEFD" opacity="1.000000" stroke="none" 
	d="
M121.000000,43.000000 
	C121.000000,68.920212 121.000000,94.840431 121.000000,121.000000 
	C99.646370,121.000000 78.291840,121.000000 56.539993,120.644226 
	C58.097046,114.547913 60.051422,108.807365 62.408749,103.068405 
	C66.506844,103.081276 69.699036,102.277351 71.080147,98.258621 
	C72.563286,93.943024 69.868370,91.520523 67.126625,88.755661 
	C68.474197,84.687271 69.765213,80.989716 71.031876,77.283829 
	C72.322998,73.506386 70.893944,71.652679 66.963829,71.546516 
	C65.989731,71.520195 65.019325,71.356972 63.996964,70.880112 
	C60.456112,61.285027 55.265137,57.640121 45.519058,57.561359 
	C42.692112,57.538513 39.865211,57.510345 37.177647,57.186867 
	C47.482983,52.934185 51.198586,46.918076 49.992802,36.365131 
	C49.193710,29.371544 42.046124,23.354187 32.706486,22.138329 
	C31.035460,22.447300 29.742990,22.733492 28.461409,23.062130 
	C19.894781,25.258886 11.462223,36.411545 17.044888,46.519127 
	C19.412378,50.805550 24.169207,53.772278 27.400761,57.454102 
	C22.206926,57.910000 17.347692,57.749512 12.724030,58.715996 
	C6.729604,59.969006 4.086198,65.363342 1.000000,70.000000 
	C1.000000,47.076488 1.000000,24.152977 1.000000,1.000000 
	C21.686996,1.000000 42.374840,1.000000 63.403339,1.317772 
	C60.087975,4.044075 57.573410,7.010359 57.648174,11.791409 
	C57.794018,21.117561 57.593235,30.449005 57.726521,39.775532 
	C57.816170,46.048477 61.295589,49.947708 67.483185,50.123268 
	C71.255249,50.230293 72.051926,51.789173 71.752228,54.984852 
	C71.612877,56.470814 71.453995,58.050636 71.807434,59.461807 
	C72.208549,61.063313 72.851196,63.396366 73.978676,63.812229 
	C75.230614,64.274002 77.542969,63.360733 78.704185,62.294960 
	C82.616478,58.704224 86.222511,54.779808 90.332375,50.824036 
	C96.198753,50.559444 101.701897,50.090839 107.152023,50.442951 
	C113.526138,50.854759 118.121391,48.718273 121.000000,43.000000 
z"/>
<path fill="#7ED96D" opacity="1.000000" stroke="none" 
	d="
M89.945694,50.983028 
	C86.222511,54.779808 82.616478,58.704224 78.704185,62.294960 
	C77.542969,63.360733 75.230614,64.274002 73.978676,63.812229 
	C72.851196,63.396366 72.208549,61.063313 71.807434,59.461807 
	C71.453995,58.050636 71.612877,56.470814 71.752228,54.984852 
	C72.051926,51.789173 71.255249,50.230293 67.483185,50.123268 
	C61.295589,49.947708 57.816170,46.048477 57.726521,39.775532 
	C57.593235,30.449005 57.794018,21.117561 57.648174,11.791409 
	C57.573410,7.010359 60.087975,4.044075 63.871998,1.317772 
	C72.020897,1.000000 80.041801,1.000000 88.535019,1.468610 
	C89.008888,9.284020 89.010452,16.630821 88.923363,24.246096 
	C88.521912,24.980091 88.209106,25.445612 87.583801,26.091845 
	C85.764137,25.902147 84.269585,25.463520 82.746017,25.181808 
	C81.402779,24.933441 79.815460,24.381119 78.732040,24.859715 
	C77.847519,25.250448 77.030518,26.988422 77.080345,28.088448 
	C77.273193,32.345940 84.915565,36.627716 88.951355,35.376759 
	C89.304192,40.893059 89.624947,45.938042 89.945694,50.983028 
z"/>
<path fill="#49B349" opacity="1.000000" stroke="none" 
	d="
M90.332375,50.824036 
	C89.624947,45.938042 89.304192,40.893059 88.994598,35.185219 
	C89.005753,34.522362 89.063225,34.133949 89.362244,33.979980 
	C92.597931,30.887346 95.734520,28.112534 98.355309,24.914963 
	C99.193962,23.891735 98.667160,21.749361 98.765099,20.119038 
	C96.995819,20.093683 95.008286,19.549957 93.514488,20.178904 
	C91.786804,20.906330 90.493759,22.666075 89.012009,23.977623 
	C89.010452,16.630821 89.008888,9.284020 89.003662,1.468610 
	C99.603203,1.000000 110.206398,1.000000 121.000000,1.000000 
	C121.000000,14.686973 121.000000,28.374828 121.000000,42.531342 
	C118.121391,48.718273 113.526138,50.854759 107.152023,50.442951 
	C101.701897,50.090839 96.198753,50.559444 90.332375,50.824036 
z"/>
<path fill="#4E6698" opacity="1.000000" stroke="none" 
	d="
M39.000000,121.000000 
	C34.310745,121.000000 29.621489,121.000000 24.341167,120.672913 
	C23.429882,118.711853 22.631392,116.996597 22.892342,115.461418 
	C23.384769,112.564445 24.486994,109.771126 25.533020,106.651031 
	C27.146080,101.836372 28.561886,97.305397 30.174074,92.481766 
	C31.250332,89.420799 32.130211,86.652489 33.246521,83.634392 
	C34.234085,81.209152 35.222916,79.082726 35.683941,76.847427 
	C36.495770,72.911255 38.639366,71.379021 42.652477,71.689194 
	C46.745796,72.005562 50.875652,71.849121 54.857292,72.257645 
	C53.959297,75.129044 53.237942,77.657028 52.420364,80.153496 
	C47.959980,93.773277 43.475922,107.385307 39.000000,121.000000 
z"/>
<path fill="#FE6774" opacity="1.000000" stroke="none" 
	d="
M33.010086,83.884171 
	C32.130211,86.652489 31.250332,89.420799 29.715359,92.490654 
	C28.395138,92.793320 27.723215,92.856796 27.066013,92.785187 
	C23.497311,92.396332 19.289803,92.959702 16.599073,91.205757 
	C14.896845,90.096153 15.733633,85.433189 14.887319,82.522202 
	C14.474683,81.102905 12.848131,79.045372 11.716713,79.009888 
	C8.158325,78.898293 4.574176,79.608170 1.000000,80.000000 
	C1.000000,76.969406 1.000000,73.938812 1.000000,70.454109 
	C4.086198,65.363342 6.729604,59.969006 12.724030,58.715996 
	C17.347692,57.749512 22.206926,57.910000 27.823818,57.609211 
	C30.123766,57.465137 31.561316,57.281258 33.031364,57.298161 
	C33.063858,57.498943 33.022007,57.903576 32.991508,58.378944 
	C32.977367,67.197594 32.993725,75.540886 33.010086,83.884171 
z"/>
<path fill="#424D81" opacity="1.000000" stroke="none" 
	d="
M39.467606,121.000000 
	C43.475922,107.385307 47.959980,93.773277 52.420364,80.153496 
	C53.237942,77.657028 53.959297,75.129044 55.289646,72.200882 
	C58.585224,71.609665 61.316227,71.433174 64.047226,71.256683 
	C65.019325,71.356972 65.989731,71.520195 66.963829,71.546516 
	C70.893944,71.652679 72.322998,73.506386 71.031876,77.283829 
	C69.765213,80.989716 68.474197,84.687271 66.688538,88.807816 
	C65.029083,89.187935 63.874695,89.155258 62.720890,89.108231 
	C59.602787,88.981125 57.207760,90.116554 57.754189,93.562744 
	C58.300182,97.006165 54.858421,102.515694 62.005802,103.066818 
	C60.051422,108.807365 58.097046,114.547913 56.071335,120.644226 
	C50.645069,121.000000 45.290142,121.000000 39.467606,121.000000 
z"/>
<path fill="#FEE9DB" opacity="1.000000" stroke="none" 
	d="
M1.000000,80.463188 
	C4.574176,79.608170 8.158325,78.898293 11.716713,79.009888 
	C12.848131,79.045372 14.474683,81.102905 14.887319,82.522202 
	C15.733633,85.433189 14.896845,90.096153 16.599073,91.205757 
	C19.289803,92.959702 23.497311,92.396332 27.066013,92.785187 
	C27.723215,92.856796 28.395138,92.793320 29.518978,92.783310 
	C28.561886,97.305397 27.146080,101.836372 25.054905,106.609901 
	C18.912525,105.898079 13.445513,104.943703 7.711327,103.791031 
	C5.296102,100.061821 3.148051,96.530907 1.000000,93.000000 
	C1.000000,88.975456 1.000000,84.950912 1.000000,80.463188 
z"/>
<path fill="#FE6774" opacity="1.000000" stroke="none" 
	d="
M7.978501,103.989326 
	C13.445513,104.943703 18.912525,105.898079 24.857651,106.893585 
	C24.486994,109.771126 23.384769,112.564445 22.892342,115.461418 
	C22.631392,116.996597 23.429882,118.711853 23.875050,120.672913 
	C19.643101,121.000000 15.286201,121.000000 10.259663,120.669907 
	C9.064281,118.682884 8.189635,117.047905 8.083718,115.364555 
	C7.845946,111.585571 7.989933,107.782555 7.978501,103.989326 
z"/>
<path fill="#FFFEFE" opacity="1.000000" stroke="none" 
	d="
M7.711327,103.791031 
	C7.989933,107.782555 7.845946,111.585571 8.083718,115.364555 
	C8.189635,117.047905 9.064281,118.682884 9.795012,120.669907 
	C7.035944,121.000000 4.071888,121.000000 1.000000,121.000000 
	C1.000000,111.979324 1.000000,102.958321 1.000000,93.468658 
	C3.148051,96.530907 5.296102,100.061821 7.711327,103.791031 
z"/>
<path fill="#FFEBDC" opacity="1.000000" stroke="none" 
	d="
M32.998867,57.097378 
	C31.561316,57.281258 30.123766,57.465137 28.263159,57.493904 
	C24.169207,53.772278 19.412378,50.805550 17.044888,46.519127 
	C11.462223,36.411545 19.894781,25.258886 28.461409,23.062130 
	C29.742990,22.733492 31.035460,22.447300 32.677498,22.591469 
	C33.021030,34.393436 33.009949,45.745407 32.998867,57.097378 
z"/>
<path fill="#FECFC6" opacity="1.000000" stroke="none" 
	d="
M33.031364,57.298161 
	C33.009949,45.745407 33.021030,34.393436 33.061096,22.588326 
	C42.046124,23.354187 49.193710,29.371544 49.992802,36.365131 
	C51.198586,46.918076 47.482983,52.934185 36.781021,57.270832 
	C35.170692,57.736229 34.096352,57.819904 33.022007,57.903576 
	C33.022007,57.903576 33.063858,57.498943 33.031364,57.298161 
z"/>
<path fill="#E12F31" opacity="1.000000" stroke="none" 
	d="
M32.991508,58.378944 
	C34.096352,57.819904 35.170692,57.736229 36.641663,57.568588 
	C39.865211,57.510345 42.692112,57.538513 45.519058,57.561359 
	C55.265137,57.640121 60.456112,61.285027 63.996964,70.880112 
	C61.316227,71.433174 58.585224,71.609665 55.421867,71.842926 
	C50.875652,71.849121 46.745796,72.005562 42.652477,71.689194 
	C38.639366,71.379021 36.495770,72.911255 35.683941,76.847427 
	C35.222916,79.082726 34.234085,81.209152 33.246517,83.634392 
	C32.993725,75.540886 32.977367,67.197594 32.991508,58.378944 
z"/>
<path fill="#FBD1C7" opacity="1.000000" stroke="none" 
	d="
M62.408752,103.068405 
	C54.858421,102.515694 58.300182,97.006165 57.754189,93.562744 
	C57.207760,90.116554 59.602787,88.981125 62.720890,89.108231 
	C63.874695,89.155258 65.029083,89.187935 66.621300,89.174995 
	C69.868370,91.520523 72.563286,93.943024 71.080147,98.258621 
	C69.699036,102.277351 66.506844,103.081276 62.408752,103.068405 
z"/>
<path fill="#F4F2ED" opacity="1.000000" stroke="none" 
	d="
M89.063225,34.133949 
	C89.063225,34.133949 89.005753,34.522362 88.962509,34.713905 
	C84.915565,36.627716 77.273193,32.345940 77.080345,28.088448 
	C77.030518,26.988422 77.847519,25.250448 78.732040,24.859715 
	C79.815460,24.381119 81.402779,24.933441 82.746017,25.181808 
	C84.269585,25.463520 85.764137,25.902147 87.893654,26.367764 
	C88.698402,29.019964 88.880814,31.576958 89.063225,34.133949 
z"/>
<path fill="#EAE4DC" opacity="1.000000" stroke="none" 
	d="
M89.362244,33.979980 
	C88.880814,31.576958 88.698402,29.019964 88.206146,26.187054 
	C88.209106,25.445612 88.521912,24.980091 88.923363,24.246098 
	C90.493759,22.666075 91.786804,20.906330 93.514488,20.178904 
	C95.008286,19.549957 96.995819,20.093683 98.765099,20.119038 
	C98.667160,21.749361 99.193962,23.891735 98.355309,24.914963 
	C95.734520,28.112534 92.597931,30.887346 89.362244,33.979980 
z"/>
</svg>